<?xml version="1.0" encoding="UTF-8"?>
<svg viewBox="0 0 940 620" xmlns="http://www.w3.org/2000/svg" font-family="Arial, sans-serif">
<defs>
  <marker id="arr" markerWidth="8" markerHeight="6" refX="7" refY="3" orient="auto">
    <polygon points="0 0, 8 3, 0 6" fill="black"/>
  </marker>
  <marker id="dep" markerWidth="10" markerHeight="8" refX="9" refY="4" orient="auto">
    <polyline points="0 0, 9 4, 0 8" stroke="black" stroke-width="1.2" fill="none"/>
  </marker>
</defs>
<rect width="940" height="620" fill="white"/>

<!-- ══════════════════════════════════
     UML Deployment Node helper:
     3D-box effect = main rect + top-face parallelogram + right-face parallelogram
     ══════════════════════════════════ -->

<!-- ══ NODE 1: Retail Kiosk (PC) ══ -->
<!-- 3D top face -->
<polygon points="20,40 60,20 280,20 240,40" fill="white" stroke="black" stroke-width="1.2"/>
<!-- 3D right face -->
<polygon points="240,40 280,20 280,250 240,270" fill="white" stroke="black" stroke-width="1.2"/>
<!-- front face -->
<rect x="20" y="40" width="220" height="230" fill="white" stroke="black" stroke-width="1.2"/>
<text x="130" y="62" text-anchor="middle" font-size="9">«device»</text>
<text x="130" y="75" text-anchor="middle" font-size="11" font-weight="bold">Retail Kiosk (PC)</text>

<!-- Artifact: React SPA -->
<rect x="34"  y="86"  width="192" height="72" fill="white" stroke="black" stroke-width="0.8"/>
<text x="130" y="102" text-anchor="middle" font-size="9">«artifact»</text>
<text x="130" y="114" text-anchor="middle" font-size="9" font-weight="bold">React SPA (Vite Build)</text>
<line x1="34" y1="116" x2="226" y2="116" stroke="black" stroke-width="0.5"/>
<text x="130" y="127" text-anchor="middle" font-size="8">Dashboard  ·  TryOn UI</text>
<text x="130" y="138" text-anchor="middle" font-size="8">360° Viewer  ·  Gesture Feed</text>
<text x="130" y="149" text-anchor="middle" font-size="8">JWT-Guarded  ·  React Router v6</text>

<!-- Artifact: Camera Driver -->
<rect x="34"  y="166" width="192" height="54" fill="white" stroke="black" stroke-width="0.8"/>
<text x="130" y="182" text-anchor="middle" font-size="9">«artifact»</text>
<text x="130" y="194" text-anchor="middle" font-size="9" font-weight="bold">Camera Driver</text>
<line x1="34" y1="196" x2="226" y2="196" stroke="black" stroke-width="0.5"/>
<text x="130" y="207" text-anchor="middle" font-size="8">USB Webcam</text>
<text x="130" y="218" text-anchor="middle" font-size="8">OpenCV VideoCapture  ·  MJPEG</text>

<!-- ══ NODE 2: Application Server ══ -->
<!-- 3D top face -->
<polygon points="330,40 370,20 680,20 640,40" fill="white" stroke="black" stroke-width="1.2"/>
<!-- 3D right face -->
<polygon points="640,40 680,20 680,440 640,460" fill="white" stroke="black" stroke-width="1.2"/>
<!-- front face -->
<rect x="330" y="40" width="310" height="420" fill="white" stroke="black" stroke-width="1.2"/>
<text x="485" y="62" text-anchor="middle" font-size="9">«execution environment»</text>
<text x="485" y="75" text-anchor="middle" font-size="11" font-weight="bold">Application Server</text>

<!-- Artifact: Flask App -->
<rect x="344" y="86"  width="282" height="106" fill="white" stroke="black" stroke-width="0.8"/>
<text x="485" y="102" text-anchor="middle" font-size="9">«artifact»</text>
<text x="485" y="114" text-anchor="middle" font-size="9" font-weight="bold">Flask Application  (Python)</text>
<line x1="344" y1="116" x2="626" y2="116" stroke="black" stroke-width="0.5"/>
<text x="485" y="128" text-anchor="middle" font-size="8">7 Blueprints: auth · products · outlets</text>
<text x="485" y="140" text-anchor="middle" font-size="8">sessions · gestures · tryon · subscriptions</text>
<text x="485" y="152" text-anchor="middle" font-size="8">GestureEngine  ·  PoseAnalyzer</text>
<text x="485" y="164" text-anchor="middle" font-size="8">CatVTONEngine  ·  TryOnEngine</text>
<text x="485" y="176" text-anchor="middle" font-size="8">JWT  ·  SQLAlchemy ORM  ·  CORS  ·  Gunicorn</text>
<text x="485" y="186" text-anchor="middle" font-size="8">UPLOAD_FOLDER: /static/uploads</text>

<!-- Artifact: PostgreSQL -->
<rect x="344" y="200" width="282" height="82" fill="white" stroke="black" stroke-width="0.8"/>
<text x="485" y="216" text-anchor="middle" font-size="9">«artifact»</text>
<text x="485" y="228" text-anchor="middle" font-size="9" font-weight="bold">PostgreSQL Database</text>
<line x1="344" y1="230" x2="626" y2="230" stroke="black" stroke-width="0.5"/>
<text x="485" y="242" text-anchor="middle" font-size="8">outlets  ·  products  ·  try_on_sessions</text>
<text x="485" y="254" text-anchor="middle" font-size="8">try_on_events  ·  subscriptions</text>
<text x="485" y="266" text-anchor="middle" font-size="8">payment_methods  ·  invoices  ·  vouchers</text>
<text x="485" y="278" text-anchor="middle" font-size="8">password_reset_tokens   (9 tables)</text>

<!-- Artifact: Flask-Migrate -->
<rect x="344" y="290" width="282" height="44" fill="white" stroke="black" stroke-width="0.8"/>
<text x="485" y="306" text-anchor="middle" font-size="9">«artifact»</text>
<text x="485" y="318" text-anchor="middle" font-size="9" font-weight="bold">Flask-Migrate  (Alembic)</text>
<line x1="344" y1="320" x2="626" y2="320" stroke="black" stroke-width="0.5"/>
<text x="485" y="330" text-anchor="middle" font-size="8">Schema version control  ·  migration scripts</text>

<!-- Artifact: Static Files -->
<rect x="344" y="342" width="282" height="44" fill="white" stroke="black" stroke-width="0.8"/>
<text x="485" y="358" text-anchor="middle" font-size="9">«artifact»</text>
<text x="485" y="370" text-anchor="middle" font-size="9" font-weight="bold">Static File Storage</text>
<line x1="344" y1="372" x2="626" y2="372" stroke="black" stroke-width="0.5"/>
<text x="485" y="382" text-anchor="middle" font-size="8">Product images  ·  Garment images  ·  Try-on results</text>

<!-- Artifact: .env config -->
<rect x="344" y="394" width="282" height="40" fill="white" stroke="black" stroke-width="0.8"/>
<text x="485" y="410" text-anchor="middle" font-size="9">«artifact»</text>
<text x="485" y="422" text-anchor="middle" font-size="9" font-weight="bold">Environment Configuration  (.env)</text>
<line x1="344" y1="424" x2="626" y2="424" stroke="black" stroke-width="0.5"/>
<text x="485" y="432" text-anchor="middle" font-size="8">DB URI  ·  JWT_SECRET  ·  AI_SERVER_URL</text>

<!-- ══ NODE 3: AI Processing Server ══ -->
<!-- 3D top face -->
<polygon points="700,40 740,20 920,20 880,40" fill="white" stroke="black" stroke-width="1.2"/>
<!-- 3D right face -->
<polygon points="880,40 920,20 920,420 880,440" fill="white" stroke="black" stroke-width="1.2"/>
<!-- front face -->
<rect x="700" y="40" width="180" height="400" fill="white" stroke="black" stroke-width="1.2"/>
<text x="790" y="62" text-anchor="middle" font-size="9">«execution environment»</text>
<text x="790" y="75" text-anchor="middle" font-size="11" font-weight="bold">AI Processing Server</text>

<!-- Artifact: FastAPI -->
<rect x="712" y="86"  width="156" height="58" fill="white" stroke="black" stroke-width="0.8"/>
<text x="790" y="102" text-anchor="middle" font-size="9">«artifact»</text>
<text x="790" y="114" text-anchor="middle" font-size="9" font-weight="bold">FastAPI Application</text>
<line x1="712" y1="116" x2="868" y2="116" stroke="black" stroke-width="0.5"/>
<text x="790" y="128" text-anchor="middle" font-size="8">GET /health</text>
<text x="790" y="140" text-anchor="middle" font-size="8">POST /tryon</text>

<!-- Artifact: Preprocessors -->
<rect x="712" y="152" width="156" height="70" fill="white" stroke="black" stroke-width="0.8"/>
<text x="790" y="168" text-anchor="middle" font-size="9">«artifact»</text>
<text x="790" y="180" text-anchor="middle" font-size="9" font-weight="bold">Preprocessors</text>
<line x1="712" y1="182" x2="868" y2="182" stroke="black" stroke-width="0.5"/>
<text x="790" y="194" text-anchor="middle" font-size="8">Pose Estimator</text>
<text x="790" y="206" text-anchor="middle" font-size="8">Human Parser (ONNX)</text>
<text x="790" y="218" text-anchor="middle" font-size="8">Body Map Generator</text>

<!-- Artifact: Diffusion Pipeline -->
<rect x="712" y="230" width="156" height="82" fill="white" stroke="black" stroke-width="0.8"/>
<text x="790" y="246" text-anchor="middle" font-size="9">«artifact»</text>
<text x="790" y="258" text-anchor="middle" font-size="9" font-weight="bold">Try-On Diffusion Pipeline</text>
<line x1="712" y1="260" x2="868" y2="260" stroke="black" stroke-width="0.5"/>
<text x="790" y="272" text-anchor="middle" font-size="8">Garment UNet Encoder</text>
<text x="790" y="284" text-anchor="middle" font-size="8">IP-Adapter CLIP Encoder</text>
<text x="790" y="296" text-anchor="middle" font-size="8">VAE  ·  DDPM Scheduler</text>
<text x="790" y="308" text-anchor="middle" font-size="8">Dual CLIP Text Encoders</text>

<!-- Artifact: Model Weights -->
<rect x="712" y="320" width="156" height="54" fill="white" stroke="black" stroke-width="0.8"/>
<text x="790" y="336" text-anchor="middle" font-size="9">«artifact»</text>
<text x="790" y="348" text-anchor="middle" font-size="9" font-weight="bold">Model Weights</text>
<line x1="712" y1="350" x2="868" y2="350" stroke="black" stroke-width="0.5"/>
<text x="790" y="362" text-anchor="middle" font-size="8">Pretrained checkpoints</text>
<text x="790" y="372" text-anchor="middle" font-size="8">GPU: VRAM ≥ 16 GB</text>

<!-- Artifact: Service Discovery -->
<rect x="712" y="382" width="156" height="40" fill="white" stroke="black" stroke-width="0.8"/>
<text x="790" y="398" text-anchor="middle" font-size="9">«artifact»</text>
<text x="790" y="410" text-anchor="middle" font-size="9" font-weight="bold">Service Discovery</text>
<line x1="712" y1="412" x2="868" y2="412" stroke="black" stroke-width="0.5"/>
<text x="790" y="420" text-anchor="middle" font-size="8">Auto URL registration</text>

<!-- ══ COMMUNICATION PATHS ══ -->

<!-- Kiosk ↔ Application Server -->
<line x1="244" y1="160" x2="328" y2="160" stroke="black" stroke-width="1.2" marker-end="url(#arr)"/>
<text x="286" y="154" text-anchor="middle" font-size="8">HTTP / REST</text>
<line x1="328" y1="175" x2="244" y2="175" stroke="black" stroke-width="1" stroke-dasharray="4,3" marker-end="url(#arr)"/>
<text x="286" y="188" text-anchor="middle" font-size="8">JSON / MJPEG</text>

<!-- Application Server ↔ AI Processing Server -->
<line x1="642" y1="180" x2="698" y2="180" stroke="black" stroke-width="1.2" marker-end="url(#arr)"/>
<text x="670" y="174" text-anchor="middle" font-size="8">HTTP POST</text>
<line x1="698" y1="195" x2="642" y2="195" stroke="black" stroke-width="1" stroke-dasharray="4,3" marker-end="url(#arr)"/>
<text x="670" y="208" text-anchor="middle" font-size="8">PNG result</text>

<!-- ══ DISCOVERY STORE (small external node) ══ -->
<rect x="700" y="488" width="180" height="60" fill="white" stroke="black" stroke-width="1.2" stroke-dasharray="6,3"/>
<text x="790" y="506" text-anchor="middle" font-size="9">«external service»</text>
<text x="790" y="519" text-anchor="middle" font-size="9" font-weight="bold">Service URL Registry</text>
<text x="790" y="534" text-anchor="middle" font-size="8">(JSON endpoint — shared config)</text>

<!-- AI Server → Discovery Store -->
<line x1="790" y1="442" x2="790" y2="486" stroke="black" stroke-width="1" stroke-dasharray="4,3" marker-end="url(#dep)"/>
<text x="798" y="466" font-size="8">publishes URL</text>

<!-- Flask → Discovery Store -->
<line x1="550" y1="460" x2="550" y2="518" stroke="black" stroke-width="1" stroke-dasharray="4,3"/>
<line x1="550" y1="518" x2="698" y2="518" stroke="black" stroke-width="1" stroke-dasharray="4,3" marker-end="url(#dep)"/>
<text x="624" y="512" text-anchor="middle" font-size="8">auto-discovery</text>

<!-- Caption -->
<text x="470" y="604" text-anchor="middle" font-size="11" font-weight="bold">Figure 4.5: Deployment Diagram</text>
</svg>
