<?xml version="1.0" encoding="UTF-8"?>
<svg viewBox="0 0 980 640" xmlns="http://www.w3.org/2000/svg" font-family="Arial, sans-serif">
<defs>
  <marker id="dep" markerWidth="10" markerHeight="8" refX="9" refY="4" orient="auto">
    <polyline points="0 0, 9 4, 0 8" stroke="black" stroke-width="1.2" fill="none"/>
  </marker>
</defs>
<rect width="980" height="640" fill="white"/>

<!-- Helper: UML package = small tab rect + large body rect -->

<!-- ══════════ FRONTEND PACKAGE ══════════ -->
<!-- tab -->
<rect x="20" y="30" width="90" height="18" fill="white" stroke="black" stroke-width="1.2"/>
<text x="65" y="44" text-anchor="middle" font-size="10" font-weight="bold">frontend</text>
<!-- body -->
<rect x="20" y="48" width="210" height="340" fill="white" stroke="black" stroke-width="1.2"/>
<text x="125" y="68" text-anchor="middle" font-size="9" font-style="italic">«React · Vite»</text>

<!-- sub-packages inside frontend -->
<!-- pages -->
<rect x="33" y="78" width="60" height="14" fill="white" stroke="black" stroke-width="0.8"/>
<text x="63" y="89" text-anchor="middle" font-size="8">pages</text>
<rect x="33" y="92" width="182" height="54" fill="white" stroke="black" stroke-width="0.8"/>
<text x="124" y="106" text-anchor="middle" font-size="8">LoginPage · DashboardPage</text>
<text x="124" y="118" text-anchor="middle" font-size="8">TryOnPage · ProductsPage</text>
<text x="124" y="130" text-anchor="middle" font-size="8">SubscriptionPage · SessionsPage</text>

<!-- components -->
<rect x="33" y="154" width="80" height="14" fill="white" stroke="black" stroke-width="0.8"/>
<text x="73" y="165" text-anchor="middle" font-size="8">components</text>
<rect x="33" y="168" width="182" height="54" fill="white" stroke="black" stroke-width="0.8"/>
<text x="124" y="182" text-anchor="middle" font-size="8">ProductCard · GestureView</text>
<text x="124" y="194" text-anchor="middle" font-size="8">TryOnResult · PoseCapture</text>
<text x="124" y="206" text-anchor="middle" font-size="8">SubscriptionCard · Header</text>

<!-- services -->
<rect x="33" y="230" width="60" height="14" fill="white" stroke="black" stroke-width="0.8"/>
<text x="63" y="241" text-anchor="middle" font-size="8">services</text>
<rect x="33" y="244" width="182" height="44" fill="white" stroke="black" stroke-width="0.8"/>
<text x="124" y="258" text-anchor="middle" font-size="8">authAPI · productsAPI</text>
<text x="124" y="270" text-anchor="middle" font-size="8">tryonAPI · gesturesAPI</text>
<text x="124" y="280" text-anchor="middle" font-size="8">subscriptionsAPI · sessionsAPI</text>

<!-- layouts + config -->
<rect x="33" y="296" width="60" height="14" fill="white" stroke="black" stroke-width="0.8"/>
<text x="63" y="307" text-anchor="middle" font-size="8">layouts</text>
<rect x="33" y="310" width="85" height="34" fill="white" stroke="black" stroke-width="0.8"/>
<text x="75" y="323" text-anchor="middle" font-size="8">DashboardLayout</text>
<text x="75" y="335" text-anchor="middle" font-size="8">ProtectedRoute</text>

<rect x="130" y="296" width="55" height="14" fill="white" stroke="black" stroke-width="0.8"/>
<text x="157" y="307" text-anchor="middle" font-size="8">config</text>
<rect x="130" y="310" width="85" height="34" fill="white" stroke="black" stroke-width="0.8"/>
<text x="172" y="323" text-anchor="middle" font-size="8">axiosConfig</text>
<text x="172" y="335" text-anchor="middle" font-size="8">routeConfig</text>

<!-- ══════════ BACKEND PACKAGE ══════════ -->
<!-- tab -->
<rect x="270" y="30" width="90" height="18" fill="white" stroke="black" stroke-width="1.2"/>
<text x="315" y="44" text-anchor="middle" font-size="10" font-weight="bold">backend</text>
<!-- body -->
<rect x="270" y="48" width="220" height="340" fill="white" stroke="black" stroke-width="1.2"/>
<text x="380" y="68" text-anchor="middle" font-size="9" font-style="italic">«Flask · Python»</text>

<!-- routes -->
<rect x="283" y="78" width="50" height="14" fill="white" stroke="black" stroke-width="0.8"/>
<text x="308" y="89" text-anchor="middle" font-size="8">routes</text>
<rect x="283" y="92" width="194" height="54" fill="white" stroke="black" stroke-width="0.8"/>
<text x="380" y="106" text-anchor="middle" font-size="8">auth · products · outlets</text>
<text x="380" y="118" text-anchor="middle" font-size="8">sessions · gestures · tryon</text>
<text x="380" y="130" text-anchor="middle" font-size="8">subscriptions  (7 blueprints)</text>

<!-- models -->
<rect x="283" y="154" width="50" height="14" fill="white" stroke="black" stroke-width="0.8"/>
<text x="308" y="165" text-anchor="middle" font-size="8">models</text>
<rect x="283" y="168" width="194" height="54" fill="white" stroke="black" stroke-width="0.8"/>
<text x="380" y="182" text-anchor="middle" font-size="8">Outlet · Product</text>
<text x="380" y="194" text-anchor="middle" font-size="8">TryOnSession · TryOnEvent</text>
<text x="380" y="206" text-anchor="middle" font-size="8">Subscription · Invoice · Voucher</text>

<!-- utils -->
<rect x="283" y="230" width="45" height="14" fill="white" stroke="black" stroke-width="0.8"/>
<text x="305" y="241" text-anchor="middle" font-size="8">utils</text>
<rect x="283" y="244" width="194" height="44" fill="white" stroke="black" stroke-width="0.8"/>
<text x="380" y="258" text-anchor="middle" font-size="8">GestureEngine · PoseAnalyzer</text>
<text x="380" y="270" text-anchor="middle" font-size="8">CatVTONEngine · TryOnEngine</text>
<text x="380" y="280" text-anchor="middle" font-size="8">HandDetector</text>

<!-- migrations + config -->
<rect x="283" y="296" width="70" height="14" fill="white" stroke="black" stroke-width="0.8"/>
<text x="318" y="307" text-anchor="middle" font-size="8">migrations</text>
<rect x="283" y="310" width="90" height="34" fill="white" stroke="black" stroke-width="0.8"/>
<text x="328" y="323" text-anchor="middle" font-size="8">Alembic scripts</text>
<text x="328" y="335" text-anchor="middle" font-size="8">Flask-Migrate</text>

<rect x="383" y="296" width="55" height="14" fill="white" stroke="black" stroke-width="0.8"/>
<text x="410" y="307" text-anchor="middle" font-size="8">config</text>
<rect x="383" y="310" width="90" height="34" fill="white" stroke="black" stroke-width="0.8"/>
<text x="428" y="323" text-anchor="middle" font-size="8">app/__init__.py</text>
<text x="428" y="335" text-anchor="middle" font-size="8">.env / config.py</text>

<!-- ══════════ AI_SERVER PACKAGE ══════════ -->
<!-- tab -->
<rect x="532" y="30" width="90" height="18" fill="white" stroke="black" stroke-width="1.2"/>
<text x="577" y="44" text-anchor="middle" font-size="10" font-weight="bold">ai_server</text>
<!-- body -->
<rect x="532" y="48" width="220" height="340" fill="white" stroke="black" stroke-width="1.2"/>
<text x="642" y="68" text-anchor="middle" font-size="9" font-style="italic">«FastAPI · Python»</text>

<!-- api -->
<rect x="545" y="78" width="40" height="14" fill="white" stroke="black" stroke-width="0.8"/>
<text x="565" y="89" text-anchor="middle" font-size="8">api</text>
<rect x="545" y="92" width="194" height="44" fill="white" stroke="black" stroke-width="0.8"/>
<text x="642" y="106" text-anchor="middle" font-size="8">FastAPI Application</text>
<text x="642" y="118" text-anchor="middle" font-size="8">GET /health  ·  POST /tryon</text>
<text x="642" y="130" text-anchor="middle" font-size="8">threading.Lock (GPU serialisation)</text>

<!-- pipeline -->
<rect x="545" y="144" width="58" height="14" fill="white" stroke="black" stroke-width="0.8"/>
<text x="574" y="155" text-anchor="middle" font-size="8">pipeline</text>
<rect x="545" y="158" width="194" height="64" fill="white" stroke="black" stroke-width="0.8"/>
<text x="642" y="172" text-anchor="middle" font-size="8">TryOnPipeline (SDXL-based)</text>
<text x="642" y="184" text-anchor="middle" font-size="8">Garment UNet Encoder</text>
<text x="642" y="196" text-anchor="middle" font-size="8">IP-Adapter CLIP Image Encoder</text>
<text x="642" y="208" text-anchor="middle" font-size="8">VAE  ·  DDPM Scheduler</text>
<text x="642" y="218" text-anchor="middle" font-size="8">Dual CLIP Text Encoders</text>

<!-- preprocessors -->
<rect x="545" y="230" width="90" height="14" fill="white" stroke="black" stroke-width="0.8"/>
<text x="590" y="241" text-anchor="middle" font-size="8">preprocessors</text>
<rect x="545" y="244" width="194" height="44" fill="white" stroke="black" stroke-width="0.8"/>
<text x="642" y="258" text-anchor="middle" font-size="8">Pose Estimator (18-joint)</text>
<text x="642" y="270" text-anchor="middle" font-size="8">Human Parser (ONNX model)</text>
<text x="642" y="280" text-anchor="middle" font-size="8">Body Map Generator (DensePose)</text>

<!-- discovery -->
<rect x="545" y="296" width="80" height="14" fill="white" stroke="black" stroke-width="0.8"/>
<text x="585" y="307" text-anchor="middle" font-size="8">discovery</text>
<rect x="545" y="310" width="194" height="34" fill="white" stroke="black" stroke-width="0.8"/>
<text x="642" y="323" text-anchor="middle" font-size="8">Service URL Registry</text>
<text x="642" y="335" text-anchor="middle" font-size="8">Auto-discovery Client</text>

<!-- ══════════ DATABASE PACKAGE ══════════ -->
<!-- tab -->
<rect x="796" y="30" width="90" height="18" fill="white" stroke="black" stroke-width="1.2"/>
<text x="841" y="44" text-anchor="middle" font-size="10" font-weight="bold">database</text>
<!-- body -->
<rect x="796" y="48" width="166" height="340" fill="white" stroke="black" stroke-width="1.2"/>
<text x="879" y="68" text-anchor="middle" font-size="9" font-style="italic">«PostgreSQL»</text>

<!-- tables sub-package -->
<rect x="808" y="78" width="55" height="14" fill="white" stroke="black" stroke-width="0.8"/>
<text x="835" y="89" text-anchor="middle" font-size="8">tables</text>
<rect x="808" y="92" width="141" height="154" fill="white" stroke="black" stroke-width="0.8"/>
<text x="878" y="106" text-anchor="middle" font-size="8">outlets</text>
<text x="878" y="118" text-anchor="middle" font-size="8">products</text>
<text x="878" y="130" text-anchor="middle" font-size="8">try_on_sessions</text>
<text x="878" y="142" text-anchor="middle" font-size="8">try_on_events</text>
<text x="878" y="154" text-anchor="middle" font-size="8">subscriptions</text>
<text x="878" y="166" text-anchor="middle" font-size="8">payment_methods</text>
<text x="878" y="178" text-anchor="middle" font-size="8">invoices</text>
<text x="878" y="190" text-anchor="middle" font-size="8">vouchers</text>
<text x="878" y="202" text-anchor="middle" font-size="8">password_reset_tokens</text>
<text x="878" y="237" text-anchor="middle" font-size="8" font-style="italic">9 tables total</text>

<!-- migrations -->
<rect x="808" y="256" width="70" height="14" fill="white" stroke="black" stroke-width="0.8"/>
<text x="843" y="267" text-anchor="middle" font-size="8">migrations</text>
<rect x="808" y="270" width="141" height="40" fill="white" stroke="black" stroke-width="0.8"/>
<text x="878" y="284" text-anchor="middle" font-size="8">Alembic version scripts</text>
<text x="878" y="296" text-anchor="middle" font-size="8">Flask-Migrate managed</text>

<!-- config -->
<rect x="808" y="318" width="55" height="14" fill="white" stroke="black" stroke-width="0.8"/>
<text x="835" y="329" text-anchor="middle" font-size="8">config</text>
<rect x="808" y="332" width="141" height="34" fill="white" stroke="black" stroke-width="0.8"/>
<text x="878" y="345" text-anchor="middle" font-size="8">DATABASE_URL (.env)</text>
<text x="878" y="357" text-anchor="middle" font-size="8">SQLAlchemy bindings</text>

<!-- ══════════ DEPENDENCY ARROWS ══════════ -->

<!-- frontend --uses--> backend  (HTTP/REST) -->
<line x1="230" y1="215" x2="268" y2="215" stroke="black" stroke-width="1" stroke-dasharray="5,3" marker-end="url(#dep)"/>
<text x="249" y="210" text-anchor="middle" font-size="8">«use»</text>
<text x="249" y="222" text-anchor="middle" font-size="8">HTTP / REST</text>

<!-- backend --uses--> ai_server  (POST /tryon) -->
<line x1="490" y1="215" x2="530" y2="215" stroke="black" stroke-width="1" stroke-dasharray="5,3" marker-end="url(#dep)"/>
<text x="510" y="210" text-anchor="middle" font-size="8">«use»</text>
<text x="510" y="222" text-anchor="middle" font-size="8">POST /tryon</text>

<!-- backend --uses--> database  (ORM) -->
<line x1="752" y1="215" x2="794" y2="215" stroke="black" stroke-width="1" stroke-dasharray="5,3" marker-end="url(#dep)"/>
<text x="773" y="210" text-anchor="middle" font-size="8">«use»</text>
<text x="773" y="222" text-anchor="middle" font-size="8">SQLAlchemy</text>

<!-- frontend --uses--> database (indirect, elbow) -->
<line x1="125" y1="390" x2="125" y2="430" stroke="black" stroke-width="1" stroke-dasharray="5,3"/>
<line x1="125" y1="430" x2="879" y2="430" stroke="black" stroke-width="1" stroke-dasharray="5,3"/>
<line x1="879" y1="430" x2="879" y2="390" stroke="black" stroke-width="1" stroke-dasharray="5,3" marker-end="url(#dep)"/>
<text x="500" y="444" text-anchor="middle" font-size="8">«indirect» — via Flask REST API</text>

<!-- Caption -->
<text x="490" y="622" text-anchor="middle" font-size="11" font-weight="bold">Figure 4.2: Package Diagram</text>
</svg>
